<svg width="256" height="256" viewBox="0 0 256 256" fill="none" xmlns="http://www.w3.org/2000/svg">
  <defs>
    <linearGradient id="coinx-ring" x1="42" y1="36" x2="214" y2="220" gradientUnits="userSpaceOnUse">
      <stop offset="0" stop-color="#F4D979"/>
      <stop offset="0.5" stop-color="#D4AF37"/>
      <stop offset="1" stop-color="#8C6A16"/>
    </linearGradient>
    <linearGradient id="coinx-line" x1="74" y1="76" x2="186" y2="180" gradientUnits="userSpaceOnUse">
      <stop offset="0" stop-color="#FFF2B8"/>
      <stop offset="1" stop-color="#D4AF37"/>
    </linearGradient>
    <filter id="coinx-glow" x="0" y="0" width="256" height="256" filterUnits="userSpaceOnUse" color-interpolation-filters="sRGB">
      <feFlood flood-opacity="0" result="BackgroundImageFix"/>
      <feColorMatrix in="SourceAlpha" type="matrix" values="0 0 0 0 0 0 0 0 0 0 0 0 0 0 0 0 0 0 127 0" result="hardAlpha"/>
      <feOffset/>
      <feGaussianBlur stdDeviation="10"/>
      <feComposite in2="hardAlpha" operator="out"/>
      <feColorMatrix type="matrix" values="0 0 0 0 0.831373 0 0 0 0 0.686275 0 0 0 0 0.215686 0 0 0 0.35 0"/>
      <feBlend mode="normal" in2="BackgroundImageFix" result="effect1_dropShadow_1_2"/>
      <feBlend mode="normal" in="SourceGraphic" in2="effect1_dropShadow_1_2" result="shape"/>
    </filter>
  </defs>
  <rect x="24" y="24" width="208" height="208" rx="58" fill="#0D0D0D"/>
  <rect x="28" y="28" width="200" height="200" rx="54" stroke="rgba(255,255,255,0.08)" stroke-width="2"/>
  <g filter="url(#coinx-glow)">
    <path d="M128 54C168.869 54 202 87.1309 202 128C202 168.869 168.869 202 128 202C87.1309 202 54 168.869 54 128C54 87.1309 87.1309 54 128 54Z" stroke="url(#coinx-ring)" stroke-width="16"/>
    <path d="M87 152L115 124L136 141L170 100" stroke="url(#coinx-line)" stroke-width="14" stroke-linecap="round" stroke-linejoin="round"/>
    <path d="M84 96L172 164" stroke="url(#coinx-ring)" stroke-opacity="0.2" stroke-width="8" stroke-linecap="round"/>
    <circle cx="87" cy="152" r="8" fill="#FFF2B8"/>
    <circle cx="115" cy="124" r="8" fill="#F4D979"/>
    <circle cx="136" cy="141" r="8" fill="#D4AF37"/>
    <circle cx="170" cy="100" r="8" fill="#FFF2B8"/>
  </g>
</svg>
